HIERARCHY
ROOT hip
{
  OFFSET 0.0 0.0 0.0
  CHANNELS 6 Xposition Yposition Zposition Zrotation Yrotation Xrotation
  JOINT abdomen
  {
    OFFSET 0.0 20.6881 -0.73152
    CHANNELS 3 Zrotation Xrotation Yrotation
    JOINT chest
    {
      OFFSET 0.0 11.7043 -0.48768
      CHANNELS 3 Zrotation Xrotation Yrotation
      JOINT neck
      {
        OFFSET 0.0 22.1894 -2.19456
        CHANNELS 3 Zrotation Xrotation Yrotation
        JOINT head
        {
          OFFSET -0.24384 7.07133 1.2192
          CHANNELS 3 Zrotation Xrotation Yrotation
          JOINT leftEye
          {
            OFFSET 4.14528 8.04674 8.04672
            CHANNELS 3 Zrotation Xrotation Yrotation
            End Site
            {
              OFFSET 1.0 0.0 0.0
            }
          }
          JOINT rightEye
          {
            OFFSET -3.6576 8.04674 8.04672
            CHANNELS 3 Zrotation Xrotation Yrotation
            End Site
            {
              OFFSET 1.0 0.0 0.0
            }
          }
        }
      }
      JOINT rCollar
      {
        OFFSET -2.68224 19.2634 -4.8768
        CHANNELS 3 Zrotation Xrotation Yrotation
        JOINT rShldr
        {
          OFFSET -8.77824 -1.95073 1.46304
          CHANNELS 3 Zrotation Xrotation Yrotation
          JOINT rForeArm
          {
            OFFSET -28.1742 -1.7115 0.48768
            CHANNELS 3 Zrotation Xrotation Yrotation
            JOINT rHand
            {
              OFFSET -22.5879 0.773209 7.07136
              CHANNELS 3 Zrotation Xrotation Yrotation
              JOINT rThumb1
              {
                OFFSET -1.2192 -0.487915 3.41376
                CHANNELS 3 Zrotation Xrotation Yrotation
                JOINT rThumb2
                {
                  OFFSET -3.37035 -0.52449 3.41376
                  CHANNELS 3 Zrotation Xrotation Yrotation
                  End Site
                  {
                    OFFSET -1.78271 -1.18214 1.43049
                  }
                }
              }
              JOINT rIndex1
              {
                OFFSET -7.75947 0.938293 5.60832
                CHANNELS 3 Zrotation Xrotation Yrotation
                JOINT rIndex2
                {
                  OFFSET -2.54057 -0.884171 1.56538
                  CHANNELS 3 Zrotation Xrotation Yrotation
                  End Site
                  {
                    OFFSET -1.62519 -0.234802 1.16502
                  }
                }
              }
              JOINT rMid1
              {
                OFFSET -8.24714 1.18213 3.41376
                CHANNELS 3 Zrotation Xrotation Yrotation
                JOINT rMid2
                {
                  OFFSET -3.10165 -0.590103 1.0647
                  CHANNELS 3 Zrotation Xrotation Yrotation
                  End Site
                  {
                    OFFSET -2.48547 -0.328903 0.83742
                  }
                }
              }
              JOINT rRing1
              {
                OFFSET -8.82822 0.546677 1.51678
                CHANNELS 3 Zrotation Xrotation Yrotation
                JOINT rRing2
                {
                  OFFSET -2.60934 -0.819778 -0.0198488
                  CHANNELS 3 Zrotation Xrotation Yrotation
                  End Site
                  {
                    OFFSET -2.33842 -0.294052 0.168128
                  }
                }
              }
              JOINT rPinky1
              {
                OFFSET -8.27202 -0.0477905 -0.4584
                CHANNELS 3 Zrotation Xrotation Yrotation
                JOINT rPinky2
                {
                  OFFSET -1.82734 -0.647385 -0.700984
                  CHANNELS 3 Zrotation Xrotation Yrotation
                  End Site
                  {
                    OFFSET -1.69225 -0.51767 -0.607171
                  }
                }
              }
            }
          }
        }
      }
      JOINT lCollar
      {
        OFFSET 2.68224 19.2634 -4.8768
        CHANNELS 3 Zrotation Xrotation Yrotation
        JOINT lShldr
        {
          OFFSET 8.77824 -1.95073 1.46304
          CHANNELS 3 Zrotation Xrotation Yrotation
          JOINT lForeArm
          {
            OFFSET 28.1742 -1.7115 0.48768
            CHANNELS 3 Zrotation Xrotation Yrotation
            JOINT lHand
            {
              OFFSET 22.5879 0.773209 7.07136
              CHANNELS 3 Zrotation Xrotation Yrotation
              JOINT lThumb1
              {
                OFFSET 1.2192 -0.487915 3.41376
                CHANNELS 3 Zrotation Xrotation Yrotation
                JOINT lThumb2
                {
                  OFFSET 3.37035 -0.52449 3.41376
                  CHANNELS 3 Zrotation Xrotation Yrotation
                  End Site
                  {
                    OFFSET 1.78271 -1.18214 1.43049
                  }
                }
              }
              JOINT lIndex1
              {
                OFFSET 7.75947 0.938293 5.60832
                CHANNELS 3 Zrotation Xrotation Yrotation
                JOINT lIndex2
                {
                  OFFSET 2.54057 -0.884171 1.56538
                  CHANNELS 3 Zrotation Xrotation Yrotation
                  End Site
                  {
                    OFFSET 1.62519 -0.234802 1.16502
                  }
                }
              }
              JOINT lMid1
              {
                OFFSET 8.24714 1.18213 3.41376
                CHANNELS 3 Zrotation Xrotation Yrotation
                JOINT lMid2
                {
                  OFFSET 3.10165 -0.590103 1.0647
                  CHANNELS 3 Zrotation Xrotation Yrotation
                  End Site
                  {
                    OFFSET 2.48547 -0.328903 0.83742
                  }
                }
              }
              JOINT lRing1
              {
                OFFSET 8.82822 0.546677 1.51678
                CHANNELS 3 Zrotation Xrotation Yrotation
                JOINT lRing2
                {
                  OFFSET 2.60934 -0.819778 -0.0198488
                  CHANNELS 3 Zrotation Xrotation Yrotation
                  End Site
                  {
                    OFFSET 2.33842 -0.294052 0.168128
                  }
                }
              }
              JOINT lPinky1
              {
                OFFSET 8.27202 -0.0477905 -0.4584
                CHANNELS 3 Zrotation Xrotation Yrotation
                JOINT lPinky2
                {
                  OFFSET 1.82734 -0.647385 -0.700984
                  CHANNELS 3 Zrotation Xrotation Yrotation
                  End Site
                  {
                    OFFSET 1.69225 -0.51767 -0.607171
                  }
                }
              }
            }
          }
        }
      }
    }
  }
  JOINT rButtock
  {
    OFFSET -8.77824 4.35084 1.2192
    CHANNELS 3 Zrotation Xrotation Yrotation
    JOINT rThigh
    {
      OFFSET 0.0 -1.70687 -2.19456
      CHANNELS 3 Zrotation Xrotation Yrotation
      JOINT rShin
      {
        OFFSET 0.0 -36.8199 0.73152
        CHANNELS 3 Zrotation Xrotation Yrotation
        JOINT rFoot
        {
          OFFSET 0.73152 -45.1104 -5.12064
          CHANNELS 3 Zrotation Xrotation Yrotation
          End Site
          {
            OFFSET -1.1221 -3.69964 12.103
          }
        }
      }
    }
  }
  JOINT lButtock
  {
    OFFSET 8.77824 4.35084 1.2192
    CHANNELS 3 Zrotation Xrotation Yrotation
    JOINT lThigh
    {
      OFFSET 0.0 -1.70687 -2.19456
      CHANNELS 3 Zrotation Xrotation Yrotation
      JOINT lShin
      {
        OFFSET 0.0 -36.8199 0.73152
        CHANNELS 3 Zrotation Xrotation Yrotation
        JOINT lFoot
        {
          OFFSET -0.73152 -45.1104 -5.12064
          CHANNELS 3 Zrotation Xrotation Yrotation
          End Site
          {
            OFFSET 1.1221 -3.69964 12.103
          }
        }
      }
    }
  }
}
MOTION
Frames: 6
Frame Time: 0.00833333
-58.9594 84.0467 -10.6156 -172.084 0.8054 -166.029 5.77182 -2.03565 2.8148 4.94639 -16.6873 2.21529 -0.215214 -1.95634 -2.31787 4.65126 11.8453 -8.25332 -0.0 0.0 0.0 -0.0 0.0 0.0 -1.88379e-13 4.24405e-13 3.06128e-14 79.5038 45.4656 -25.1025 -15.9083 -8.60232 29.4793 -0.110245 -9.44244 -1.33925 3.03675e-09 -6.71473e-10 -1.99291e-09 5.25423e-09 -1.16953e-09 -3.43551e-09 3.03675e-09 -6.7147e-10 -1.99292e-09 7.73091 5.47488 0.417314 3.03675e-09 -6.71472e-10 -1.99291e-09 2.90554 0.965183 0.102902 3.03676e-09 -6.71473e-10 -1.9929e-09 10.2786 0.731801 0.0259123 3.03675e-09 -6.71472e-10 -1.9929e-09 2.22167 -0.733487 -0.20892 -1.88408e-13 4.24406e-13 3.03581e-14 -76.8219 23.9215 15.0893 14.8509 -7.65707 -27.2922 0.00475848 2.09629 -0.294746 -2.05515e-10 2.81323e-09 2.81089e-09 -3.45822e-10 4.86976e-09 4.86111e-09 -2.05523e-10 2.81323e-09 2.81091e-09 -7.73091 5.47488 -0.417314 -2.05511e-10 2.81323e-09 2.81089e-09 -2.90554 0.965183 -0.102902 -2.05522e-10 2.81323e-09 2.81089e-09 -10.2786 0.731801 -0.0259123 -2.05509e-10 2.81323e-09 2.81088e-09 -2.22167 -0.733487 0.20892 -2.03217e-16 0.0 -3.88251e-19 8.82951 -16.5263 28.9501 -0.0907613 14.6674 -0.621441 -32.0754 -44.5197 -44.6917 2.03217e-16 0.0 3.88251e-19 6.27082 -8.91696 -19.1772 0.0617687 3.51758 -0.189664 -3.77038 -11.6653 -16.1874
-58.4284 84.0448 -10.7265 -171.822 0.9741 -166.123 6.65177 -2.04531 2.92478 4.65875 -16.754 2.23097 -0.273288 -2.22528 -2.38023 4.44493 12.2336 -8.3783 -0.0 0.0 0.0 -0.0 0.0 0.0 -1.59441e-13 1.48008e-13 7.10415e-14 79.1889 45.1012 -25.0513 -16.016 -8.70209 29.7066 -0.121954 -9.91894 -1.40821 1.50615e-09 -5.15019e-10 -7.26981e-10 2.60512e-09 -8.9411e-10 -1.25116e-09 1.50615e-09 -5.15015e-10 -7.26997e-10 7.73091 5.47488 0.417314 1.50614e-09 -5.15019e-10 -7.26981e-10 2.90554 0.965183 0.102902 1.50615e-09 -5.15021e-10 -7.26978e-10 10.2786 0.731801 0.0259123 1.50614e-09 -5.15019e-10 -7.26971e-10 2.22167 -0.733487 -0.20892 -1.59489e-13 1.48008e-13 7.07836e-14 -76.6372 24.6729 15.5558 14.8424 -7.64956 -27.2751 0.00294211 1.34202 -0.188704 -1.05388e-09 3.57798e-10 1.25569e-09 -1.82147e-09 6.18645e-10 2.17401e-09 -1.05388e-09 3.57796e-10 1.2557e-09 -7.73091 5.47488 -0.417314 -1.05387e-09 3.57799e-10 1.25569e-09 -2.90554 0.965183 -0.102902 -1.05388e-09 3.57798e-10 1.25569e-09 -10.2786 0.731801 -0.0259123 -1.05387e-09 3.57798e-10 1.25567e-09 -2.22167 -0.733487 0.20892 -2.03217e-16 0.0 -3.88251e-19 8.93888 -14.8617 34.8218 -0.109688 14.6435 -0.830278 -41.458 -52.6868 -50.8957 2.03217e-16 0.0 3.88251e-19 6.89893 -9.0376 -19.149 0.0671525 3.59073 -0.245685 -3.58528 -11.8725 -15.8762
-57.8919 83.9601 -10.799 -171.771 1.2043 -166.189 7.24491 -2.0207 3.03565 4.4341 -16.8011 2.25123 -0.325599 -2.338 -2.43022 4.29184 12.3627 -8.4523 -0.0 0.0 0.0 -0.0 0.0 0.0 -1.19991e-13 -2.06736e-14 8.55768e-14 78.9359 44.9037 -25.0305 -16.1208 -8.79988 29.928 -0.133209 -10.3498 -1.47077 3.72674e-10 -2.86469e-10 9.83682e-11 6.43431e-10 -4.95216e-10 1.72214e-10 3.72676e-10 -2.86465e-10 9.83491e-11 7.73091 5.47488 0.417314 3.72669e-10 -2.8647e-10 9.83682e-11 2.90554 0.965183 0.102902 3.72674e-10 -2.86473e-10 9.83714e-11 10.2786 0.731801 0.0259123 3.72668e-10 -2.86471e-10 9.83777e-11 2.22167 -0.733487 -0.20892 -1.20049e-13 -2.06736e-14 8.53283e-14 -76.3477 24.8222 15.8305 14.7167 -7.5475 -27.0074 0.00177109 1.20159 -0.168897 -1.52724e-09 -1.13434e-09 2.03975e-10 -2.64519e-09 -1.96462e-09 3.56465e-10 -1.52725e-09 -1.13434e-09 2.03985e-10 -7.73091 5.47488 -0.417314 -1.52724e-09 -1.13433e-09 2.03972e-10 -2.90554 0.965183 -0.102902 -1.52725e-09 -1.13433e-09 2.03973e-10 -10.2786 0.731801 -0.0259123 -1.52723e-09 -1.13433e-09 2.03956e-10 -2.22167 -0.733487 0.20892 -2.03217e-16 0.0 -3.88251e-19 8.63148 -12.7607 40.2088 -0.108312 14.3853 -0.739795 -51.7487 -59.535 -58.4427 2.03217e-16 0.0 3.88251e-19 7.39085 -9.30369 -18.9265 0.0744667 4.09265 -0.292943 -3.3606 -11.7342 -15.8797
-57.3321 83.8177 -10.8002 -171.764 1.4666 -166.226 7.4302 -1.94777 3.15724 4.30066 -16.8233 2.28242 -0.374177 -2.20704 -2.46447 4.22302 12.073 -8.44756 -0.0 0.0 0.0 -0.0 0.0 0.0 -5.79607e-14 -1.97108e-14 6.14773e-14 78.7516 44.9628 -25.0385 -16.2264 -8.89964 30.1511 -0.144051 -10.7559 -1.52984 -2.05388e-10 1.03546e-10 2.67891e-10 -3.56997e-10 1.81385e-10 4.6273e-10 -2.05384e-10 1.0355e-10 2.67873e-10 7.73091 5.47488 0.417314 -2.05391e-10 1.03544e-10 2.67891e-10 2.90554 0.965183 0.102902 -2.05385e-10 1.03542e-10 2.67893e-10 10.2786 0.731801 0.0259123 -2.05394e-10 1.03543e-10 2.67898e-10 2.22167 -0.733487 -0.20892 -5.8015e-14 -1.97109e-14 6.12637e-14 -75.8792 24.0678 15.8016 14.3941 -7.28681 -26.3307 0.000677647 1.99141 -0.279761 -1.46518e-09 -1.16005e-09 -6.23778e-11 -2.53731e-09 -2.00868e-09 -1.04527e-10 -1.46519e-09 -1.16005e-09 -6.23716e-11 -7.73091 5.47488 -0.417314 -1.46518e-09 -1.16005e-09 -6.23813e-11 -2.90554 0.965183 -0.102902 -1.46519e-09 -1.16005e-09 -6.23798e-11 -10.2786 0.731801 -0.0259123 -1.46517e-09 -1.16004e-09 -6.23945e-11 -2.22167 -0.733487 0.20892 -2.03217e-16 0.0 -3.88251e-19 7.74788 -10.0635 45.3376 -0.0627764 13.7691 -0.173726 -62.3149 -65.5944 -66.3668 2.03217e-16 0.0 3.88251e-19 7.66821 -9.75503 -18.5015 0.0846289 5.18754 -0.33392 -3.098 -11.1499 -16.3992
-56.7038 83.6144 -10.8205 -171.732 1.7533 -166.307 7.3625 -1.83816 3.28432 4.21342 -16.8297 2.31852 -0.413801 -1.92448 -2.48379 4.20292 11.5156 -8.38409 -0.0 0.0 0.0 -0.0 0.0 0.0 2.34371e-14 6.87296e-14 1.24054e-14 78.6379 45.2242 -25.077 -16.344 -9.01136 30.4006 -0.154845 -11.1502 -1.58732 -5.78463e-10 6.29664e-10 1.20683e-10 -1.00263e-09 1.09282e-09 2.0583e-10 -5.78457e-10 6.29668e-10 1.20668e-10 7.73091 5.47488 0.417314 -5.78465e-10 6.29663e-10 1.20682e-10 2.90554 0.965183 0.102902 -5.78458e-10 6.29661e-10 1.20684e-10 10.2786 0.731801 0.0259123 -5.78469e-10 6.2966e-10 1.20687e-10 2.22167 -0.733487 -0.20892 2.33937e-14 6.87296e-14 1.22439e-14 -75.273 22.6965 15.5711 13.9131 -6.89977 -25.3493 0.00739607 3.41254 -0.479756 -1.05172e-09 -3.93349e-10 3.6261e-11 -1.81869e-09 -6.80675e-10 6.45498e-11 -1.05173e-09 -3.93352e-10 3.62641e-11 -7.73091 5.47488 -0.417314 -1.05172e-09 -3.93349e-10 3.62587e-11 -2.90554 0.965183 -0.102902 -1.05173e-09 -3.93349e-10 3.62607e-11 -10.2786 0.731801 -0.0259123 -1.05172e-09 -3.93348e-10 3.62507e-11 -2.22167 -0.733487 0.20892 -2.03217e-16 0.0 -3.88251e-19 6.31984 -7.147 50.4548 0.0346329 12.9594 0.719962 -74.9775 -71.5065 -76.4943 2.03217e-16 0.0 3.88251e-19 7.82142 -10.3955 -17.8889 0.0992308 6.76911 -0.374633 -2.77247 -10.2501 -17.2364
-56.0383 83.3444 -10.859 -171.787 2.0343 -166.44 7.1972 -1.71477 3.39871 4.14257 -16.8252 2.34971 -0.442545 -1.6181 -2.49511 4.18666 10.9363 -8.30917 -0.0 0.0 0.0 -0.0 0.0 0.0 9.94567e-14 1.66935e-13 -4.3217e-14 78.5773 45.5266 -25.1468 -16.4564 -9.11866 30.6409 -0.16416 -11.4763 -1.63499 -8.39866e-10 1.10983e-09 -1.13267e-10 -1.45479e-09 1.92422e-09 -2.00809e-10 -8.39859e-10 1.10983e-09 -1.13278e-10 7.73091 5.47488 0.417314 -8.39867e-10 1.10983e-09 -1.13267e-10 2.90554 0.965183 0.102902 -8.39858e-10 1.10982e-09 -1.13267e-10 10.2786 0.731801 0.0259123 -8.39873e-10 1.10982e-09 -1.13266e-10 2.22167 -0.733487 -0.20892 9.94257e-14 1.66935e-13 -4.33327e-14 -74.654 21.1768 15.3165 13.4051 -6.49431 -24.345 0.025908 4.97712 -0.700957 -5.09822e-10 5.39234e-10 1.8095e-10 -8.77981e-10 9.34229e-10 3.12815e-10 -5.09825e-10 5.39231e-10 1.8095e-10 -7.73091 5.47488 -0.417314 -5.0982e-10 5.39233e-10 1.80949e-10 -2.90554 0.965183 -0.102902 -5.09826e-10 5.39234e-10 1.80951e-10 -10.2786 0.731801 -0.0259123 -5.09819e-10 5.39235e-10 1.80946e-10 -2.22167 -0.733487 0.20892 -2.03217e-16 0.0 -3.88251e-19 4.49644 -4.64253 55.0687 0.160649 12.1077 1.64738 -90.9647 -76.1681 -90.4943 2.03217e-16 0.0 3.88251e-19 7.98503 -11.1382 -17.0952 0.117684 8.54762 -0.405699 -2.36423 -9.17118 -18.0879
